<mxfile host="app.diagrams.net" agent="Mozilla/5.0 (Windows NT 10.0; Win64; x64) AppleWebKit/537.36 (KHTML, like Gecko) Chrome/129.0.0.0 Safari/537.36" version="24.8.0">
  <diagram name="Page-1" id="Q0JuIZ8I1il7Y8uOGKao">
    <mxGraphModel dx="758" dy="749" grid="1" gridSize="10" guides="1" tooltips="1" connect="1" arrows="1" fold="1" page="1" pageScale="1" pageWidth="827" pageHeight="1169" math="0" shadow="0">
      <root>
        <mxCell id="0" />
        <mxCell id="1" parent="0" />
        <mxCell id="creb_9jgRzTrfMOjEPwK-1" value="" style="ellipse;html=1;shape=startState;fillColor=#000000;strokeColor=#ff0000;" vertex="1" parent="1">
          <mxGeometry x="384" y="70" width="30" height="30" as="geometry" />
        </mxCell>
        <mxCell id="creb_9jgRzTrfMOjEPwK-2" value="" style="edgeStyle=orthogonalEdgeStyle;html=1;verticalAlign=bottom;endArrow=open;endSize=8;strokeColor=#ff0000;rounded=0;" edge="1" source="creb_9jgRzTrfMOjEPwK-1" parent="1" target="creb_9jgRzTrfMOjEPwK-6">
          <mxGeometry relative="1" as="geometry">
            <mxPoint x="399" y="120" as="targetPoint" />
          </mxGeometry>
        </mxCell>
        <mxCell id="creb_9jgRzTrfMOjEPwK-4" value="" style="ellipse;html=1;shape=endState;fillColor=#000000;strokeColor=#ff0000;" vertex="1" parent="1">
          <mxGeometry x="410" y="1250" width="30" height="30" as="geometry" />
        </mxCell>
        <mxCell id="creb_9jgRzTrfMOjEPwK-8" style="edgeStyle=orthogonalEdgeStyle;rounded=0;orthogonalLoop=1;jettySize=auto;html=1;" edge="1" parent="1" source="creb_9jgRzTrfMOjEPwK-6" target="creb_9jgRzTrfMOjEPwK-7">
          <mxGeometry relative="1" as="geometry" />
        </mxCell>
        <mxCell id="creb_9jgRzTrfMOjEPwK-6" value="Start Desktop Application" style="rounded=1;whiteSpace=wrap;html=1;" vertex="1" parent="1">
          <mxGeometry x="339" y="150" width="120" height="60" as="geometry" />
        </mxCell>
        <mxCell id="creb_9jgRzTrfMOjEPwK-7" value="Document Upload" style="rounded=1;whiteSpace=wrap;html=1;" vertex="1" parent="1">
          <mxGeometry x="339" y="240" width="120" height="60" as="geometry" />
        </mxCell>
        <mxCell id="creb_9jgRzTrfMOjEPwK-15" style="edgeStyle=orthogonalEdgeStyle;rounded=0;orthogonalLoop=1;jettySize=auto;html=1;entryX=0.5;entryY=0;entryDx=0;entryDy=0;" edge="1" parent="1" source="creb_9jgRzTrfMOjEPwK-9" target="creb_9jgRzTrfMOjEPwK-14">
          <mxGeometry relative="1" as="geometry" />
        </mxCell>
        <mxCell id="creb_9jgRzTrfMOjEPwK-17" style="edgeStyle=orthogonalEdgeStyle;rounded=0;orthogonalLoop=1;jettySize=auto;html=1;entryX=0.5;entryY=0;entryDx=0;entryDy=0;" edge="1" parent="1" source="creb_9jgRzTrfMOjEPwK-9" target="creb_9jgRzTrfMOjEPwK-16">
          <mxGeometry relative="1" as="geometry" />
        </mxCell>
        <mxCell id="creb_9jgRzTrfMOjEPwK-9" value="Is Document&amp;nbsp;&lt;div&gt;Format Valid?&lt;/div&gt;" style="html=1;whiteSpace=wrap;aspect=fixed;shape=isoRectangle;" vertex="1" parent="1">
          <mxGeometry x="324" y="340" width="150" height="90" as="geometry" />
        </mxCell>
        <mxCell id="creb_9jgRzTrfMOjEPwK-10" style="edgeStyle=orthogonalEdgeStyle;rounded=0;orthogonalLoop=1;jettySize=auto;html=1;entryX=0.5;entryY=0.013;entryDx=0;entryDy=0;entryPerimeter=0;" edge="1" parent="1" source="creb_9jgRzTrfMOjEPwK-7" target="creb_9jgRzTrfMOjEPwK-9">
          <mxGeometry relative="1" as="geometry" />
        </mxCell>
        <mxCell id="creb_9jgRzTrfMOjEPwK-21" style="edgeStyle=orthogonalEdgeStyle;rounded=0;orthogonalLoop=1;jettySize=auto;html=1;" edge="1" parent="1" source="creb_9jgRzTrfMOjEPwK-14" target="creb_9jgRzTrfMOjEPwK-20">
          <mxGeometry relative="1" as="geometry" />
        </mxCell>
        <mxCell id="creb_9jgRzTrfMOjEPwK-14" value="Payment Processing :&lt;div&gt;Select Printer Preferences&lt;/div&gt;" style="rounded=1;whiteSpace=wrap;html=1;" vertex="1" parent="1">
          <mxGeometry x="190" y="440" width="120" height="60" as="geometry" />
        </mxCell>
        <mxCell id="creb_9jgRzTrfMOjEPwK-16" value="Throw Error and prompt to upload a valid file format" style="rounded=1;whiteSpace=wrap;html=1;" vertex="1" parent="1">
          <mxGeometry x="510" y="440" width="120" height="60" as="geometry" />
        </mxCell>
        <mxCell id="creb_9jgRzTrfMOjEPwK-18" value="Yes" style="text;html=1;align=center;verticalAlign=middle;whiteSpace=wrap;rounded=0;" vertex="1" parent="1">
          <mxGeometry x="260" y="360" width="60" height="30" as="geometry" />
        </mxCell>
        <mxCell id="creb_9jgRzTrfMOjEPwK-19" value="No" style="text;html=1;align=center;verticalAlign=middle;whiteSpace=wrap;rounded=0;" vertex="1" parent="1">
          <mxGeometry x="200" y="620" width="60" height="30" as="geometry" />
        </mxCell>
        <mxCell id="creb_9jgRzTrfMOjEPwK-23" value="" style="edgeStyle=orthogonalEdgeStyle;rounded=0;orthogonalLoop=1;jettySize=auto;html=1;" edge="1" parent="1" source="creb_9jgRzTrfMOjEPwK-20" target="creb_9jgRzTrfMOjEPwK-22">
          <mxGeometry relative="1" as="geometry" />
        </mxCell>
        <mxCell id="creb_9jgRzTrfMOjEPwK-25" style="edgeStyle=orthogonalEdgeStyle;rounded=0;orthogonalLoop=1;jettySize=auto;html=1;entryX=0.5;entryY=0;entryDx=0;entryDy=0;" edge="1" parent="1" source="creb_9jgRzTrfMOjEPwK-20" target="creb_9jgRzTrfMOjEPwK-24">
          <mxGeometry relative="1" as="geometry" />
        </mxCell>
        <mxCell id="creb_9jgRzTrfMOjEPwK-20" value="Did the Payment&amp;nbsp;&lt;div&gt;Succeed?&lt;/div&gt;" style="html=1;whiteSpace=wrap;aspect=fixed;shape=isoRectangle;" vertex="1" parent="1">
          <mxGeometry x="174" y="530" width="150" height="90" as="geometry" />
        </mxCell>
        <mxCell id="creb_9jgRzTrfMOjEPwK-22" value="Throw Error and prompt to Try Again" style="rounded=1;whiteSpace=wrap;html=1;" vertex="1" parent="1">
          <mxGeometry x="189" y="660" width="120" height="60" as="geometry" />
        </mxCell>
        <mxCell id="creb_9jgRzTrfMOjEPwK-33" style="edgeStyle=orthogonalEdgeStyle;rounded=0;orthogonalLoop=1;jettySize=auto;html=1;entryX=0.5;entryY=0;entryDx=0;entryDy=0;" edge="1" parent="1" source="creb_9jgRzTrfMOjEPwK-24" target="creb_9jgRzTrfMOjEPwK-32">
          <mxGeometry relative="1" as="geometry" />
        </mxCell>
        <mxCell id="creb_9jgRzTrfMOjEPwK-24" value="Printer Job Creation" style="rounded=1;whiteSpace=wrap;html=1;" vertex="1" parent="1">
          <mxGeometry x="354" y="620" width="120" height="60" as="geometry" />
        </mxCell>
        <mxCell id="creb_9jgRzTrfMOjEPwK-26" value="Yes" style="text;html=1;align=center;verticalAlign=middle;whiteSpace=wrap;rounded=0;" vertex="1" parent="1">
          <mxGeometry x="330" y="550" width="60" height="30" as="geometry" />
        </mxCell>
        <mxCell id="creb_9jgRzTrfMOjEPwK-35" style="edgeStyle=orthogonalEdgeStyle;rounded=0;orthogonalLoop=1;jettySize=auto;html=1;entryX=0.5;entryY=0;entryDx=0;entryDy=0;" edge="1" parent="1" source="creb_9jgRzTrfMOjEPwK-32" target="creb_9jgRzTrfMOjEPwK-34">
          <mxGeometry relative="1" as="geometry" />
        </mxCell>
        <mxCell id="creb_9jgRzTrfMOjEPwK-32" value="The Job is queues in Cloudinary for Vendor approval" style="rounded=1;whiteSpace=wrap;html=1;" vertex="1" parent="1">
          <mxGeometry x="354" y="720" width="120" height="60" as="geometry" />
        </mxCell>
        <mxCell id="creb_9jgRzTrfMOjEPwK-37" style="edgeStyle=orthogonalEdgeStyle;rounded=0;orthogonalLoop=1;jettySize=auto;html=1;" edge="1" parent="1" source="creb_9jgRzTrfMOjEPwK-34" target="creb_9jgRzTrfMOjEPwK-36">
          <mxGeometry relative="1" as="geometry" />
        </mxCell>
        <mxCell id="creb_9jgRzTrfMOjEPwK-34" value="Vendor Approval" style="rounded=1;whiteSpace=wrap;html=1;" vertex="1" parent="1">
          <mxGeometry x="354" y="820" width="120" height="60" as="geometry" />
        </mxCell>
        <mxCell id="creb_9jgRzTrfMOjEPwK-41" style="edgeStyle=orthogonalEdgeStyle;rounded=0;orthogonalLoop=1;jettySize=auto;html=1;" edge="1" parent="1" source="creb_9jgRzTrfMOjEPwK-36">
          <mxGeometry relative="1" as="geometry">
            <mxPoint x="414" y="1040" as="targetPoint" />
          </mxGeometry>
        </mxCell>
        <mxCell id="creb_9jgRzTrfMOjEPwK-36" value="Printing" style="rounded=1;whiteSpace=wrap;html=1;" vertex="1" parent="1">
          <mxGeometry x="354" y="920" width="120" height="60" as="geometry" />
        </mxCell>
        <mxCell id="creb_9jgRzTrfMOjEPwK-38" value="Document Collection" style="rounded=1;whiteSpace=wrap;html=1;" vertex="1" parent="1">
          <mxGeometry x="234" y="1085" width="120" height="60" as="geometry" />
        </mxCell>
        <mxCell id="creb_9jgRzTrfMOjEPwK-39" value="Deleting Document from Cloudinary" style="rounded=1;whiteSpace=wrap;html=1;" vertex="1" parent="1">
          <mxGeometry x="474" y="1085" width="120" height="60" as="geometry" />
        </mxCell>
        <mxCell id="creb_9jgRzTrfMOjEPwK-40" value="" style="endArrow=none;html=1;rounded=0;" edge="1" parent="1">
          <mxGeometry width="50" height="50" relative="1" as="geometry">
            <mxPoint x="230" y="1040" as="sourcePoint" />
            <mxPoint x="630" y="1040" as="targetPoint" />
          </mxGeometry>
        </mxCell>
        <mxCell id="creb_9jgRzTrfMOjEPwK-42" value="" style="endArrow=classic;html=1;rounded=0;entryX=0.5;entryY=0;entryDx=0;entryDy=0;" edge="1" parent="1" target="creb_9jgRzTrfMOjEPwK-38">
          <mxGeometry width="50" height="50" relative="1" as="geometry">
            <mxPoint x="294" y="1040" as="sourcePoint" />
            <mxPoint x="410" y="900" as="targetPoint" />
          </mxGeometry>
        </mxCell>
        <mxCell id="creb_9jgRzTrfMOjEPwK-44" value="" style="endArrow=classic;html=1;rounded=0;entryX=0.5;entryY=0;entryDx=0;entryDy=0;" edge="1" parent="1" target="creb_9jgRzTrfMOjEPwK-39">
          <mxGeometry width="50" height="50" relative="1" as="geometry">
            <mxPoint x="534" y="1040" as="sourcePoint" />
            <mxPoint x="304" y="1095" as="targetPoint" />
          </mxGeometry>
        </mxCell>
        <mxCell id="creb_9jgRzTrfMOjEPwK-45" value="" style="endArrow=none;html=1;rounded=0;" edge="1" parent="1">
          <mxGeometry width="50" height="50" relative="1" as="geometry">
            <mxPoint x="310" y="1200" as="sourcePoint" />
            <mxPoint x="520" y="1201" as="targetPoint" />
          </mxGeometry>
        </mxCell>
        <mxCell id="creb_9jgRzTrfMOjEPwK-46" value="" style="endArrow=classic;html=1;rounded=0;exitX=0.5;exitY=1;exitDx=0;exitDy=0;" edge="1" parent="1" source="creb_9jgRzTrfMOjEPwK-38">
          <mxGeometry width="50" height="50" relative="1" as="geometry">
            <mxPoint x="304" y="1050" as="sourcePoint" />
            <mxPoint x="420" y="1200" as="targetPoint" />
          </mxGeometry>
        </mxCell>
        <mxCell id="creb_9jgRzTrfMOjEPwK-47" value="" style="endArrow=classic;html=1;rounded=0;exitX=0.5;exitY=1;exitDx=0;exitDy=0;" edge="1" parent="1" source="creb_9jgRzTrfMOjEPwK-39">
          <mxGeometry width="50" height="50" relative="1" as="geometry">
            <mxPoint x="544" y="1050" as="sourcePoint" />
            <mxPoint x="420" y="1200" as="targetPoint" />
          </mxGeometry>
        </mxCell>
        <mxCell id="creb_9jgRzTrfMOjEPwK-48" value="" style="endArrow=classic;html=1;rounded=0;entryX=0.5;entryY=0;entryDx=0;entryDy=0;" edge="1" parent="1" target="creb_9jgRzTrfMOjEPwK-4">
          <mxGeometry width="50" height="50" relative="1" as="geometry">
            <mxPoint x="420" y="1200" as="sourcePoint" />
            <mxPoint x="410" y="1150" as="targetPoint" />
          </mxGeometry>
        </mxCell>
        <mxCell id="creb_9jgRzTrfMOjEPwK-50" value="No" style="text;html=1;align=center;verticalAlign=middle;whiteSpace=wrap;rounded=0;" vertex="1" parent="1">
          <mxGeometry x="500" y="360" width="60" height="30" as="geometry" />
        </mxCell>
      </root>
    </mxGraphModel>
  </diagram>
</mxfile>
